<svg width="720" height="900" viewBox="0 0 720 900" fill="none" xmlns="http://www.w3.org/2000/svg"><g stroke="#F8F3EA" opacity=".14" stroke-width="1"><path d="M0 130h720M0 390h720M0 650h720M110 0v900M390 0v900M640 0v900"/></g><g stroke="#F8F3EA" opacity=".20" stroke-width="1.2" stroke-linecap="round"><path d="M500 100c-70 78-20 146 55 226s-40 133-4 240 120 160 12 250" stroke-dasharray="7 9"/><path d="M610 128c-75 56-70 122-23 170s-40 75-53 126c-18 71 84 113 54 170" opacity=".28"/></g><g fill="#F8F3EA" opacity=".35"><circle cx="504" cy="184" r="3"/><circle cx="565" cy="302" r="3"/><circle cx="513" cy="486" r="3"/><circle cx="604" cy="707" r="3"/></g></svg>
