<svg width="96" height="96" viewBox="0 0 96 96" fill="none" xmlns="http://www.w3.org/2000/svg"><g stroke="#0F2947" stroke-width="1.7" stroke-linejoin="round" stroke-linecap="round"><circle cx="48" cy="48" r="40"/><circle cx="48" cy="48" r="35" opacity=".35"/><path d="M48 10l8 30 30 8-30 8-8 30-8-30-30-8 30-8 8-30z" fill="#0F2947" fill-opacity=".1"/><path d="M48 18l5.2 25 24.8 5-24.8 5L48 78l-5.2-25L18 48l24.8-5L48 18z"/><path d="M29 29l14 10M67 29L53 39M29 67l14-10M67 67L53 57" opacity=".55"/></g></svg>
