<svg width="640" height="420" viewBox="0 0 640 420" fill="none" xmlns="http://www.w3.org/2000/svg">
  <g stroke="#8f877b" stroke-width="0.8" opacity="0.28">
    <path d="M10 55C80 10 145 90 220 52C310 8 385 70 470 35C540 8 595 25 630 12"/>
    <path d="M0 102C86 52 150 130 238 88C322 48 390 120 492 75C558 46 600 62 640 38"/>
    <path d="M5 158C95 98 190 202 280 135C360 76 440 180 635 115"/>
    <path d="M30 232C120 170 220 290 318 205C410 128 500 264 635 190"/>
    <path d="M0 312C112 248 215 390 330 285C430 195 528 340 640 262"/>
    <path d="M80 410C160 330 240 470 350 360C435 275 545 420 640 342"/>
  </g>
  <g stroke="#1f5f99" stroke-width="1" opacity="0.16">
    <path d="M58 190C118 206 170 176 216 205C250 226 282 220 310 198"/>
    <path d="M470 90C505 125 540 108 580 136"/>
  </g>
</svg>