<svg width="320" height="220" viewBox="0 0 320 220" fill="none" xmlns="http://www.w3.org/2000/svg"><g stroke="#A5A5A5" stroke-width="1" opacity=".42"><path d="M22 68c42-38 94-44 141-22s71 55 127 24" stroke-dasharray="6 5"/><path d="M35 112c38-64 94-75 143-45 45 28 48 72 107 65"/><path d="M70 130c20-44 60-64 103-40 38 21 37 58 81 61"/><path d="M93 134c18-26 45-41 75-22 25 15 26 38 59 45"/><path d="M114 135c16-15 34-21 51-12 16 8 20 21 40 27"/><path d="M16 178c50-20 90 16 135 7s76-40 140-17" stroke-dasharray="6 5"/></g></svg>
