<svg width="24" height="24" viewBox="0 0 24 24" fill="none" xmlns="http://www.w3.org/2000/svg"><path d="M12 8.6a3.4 3.4 0 100 6.8 3.4 3.4 0 000-6.8z" stroke="currentColor" stroke-width="1.6"/><path d="M19.3 13.2v-2.4l-2.1-.5a5.9 5.9 0 00-.7-1.6l1.1-1.9-1.7-1.7-1.9 1.1a6.2 6.2 0 00-1.6-.7L12 3.4H9.6l-.5 2.1a6.2 6.2 0 00-1.6.7L5.6 5.1 3.9 6.8 5 8.7a5.9 5.9 0 00-.7 1.6l-2.1.5v2.4l2.1.5c.2.6.4 1.1.7 1.6l-1.1 1.9 1.7 1.7 1.9-1.1c.5.3 1 .5 1.6.7l.5 2.1H12l.5-2.1c.6-.2 1.1-.4 1.6-.7l1.9 1.1 1.7-1.7-1.1-1.9c.3-.5.5-1 .7-1.6l2-.5z" stroke="currentColor" stroke-width="1.3" stroke-linejoin="round"/></svg>